<?xml version="1.0" encoding="utf-8"?>
<!-- Generator: Adobe Illustrator 28.0.0, SVG Export Plug-In . SVG Version: 6.00 Build 0)  -->
<svg version="1.1" id="Layer_1" xmlns="http://www.w3.org/2000/svg" xmlns:xlink="http://www.w3.org/1999/xlink" x="0px" y="0px"
	 viewBox="0 0 216 216" style="enable-background:new 0 0 216 216;" xml:space="preserve">
<style type="text/css">
	.st0{fill-rule:evenodd;clip-rule:evenodd;fill:#FFFFFF;}
</style>
<g>
	<path class="st0" d="M108.2,83.3h-0.3c-13.5,0-24.7,11.2-24.7,24.7c0,13.8,11.2,25,24.7,25h0.3c13.5,0,24.7-11.2,24.7-25
		C132.9,94.5,121.7,83.3,108.2,83.3z"/>
	<path class="st0" d="M139.4,51.1H76.6c-14.2,0-25.7,11.5-25.7,25.7v62.5c0,14.2,11.5,25.7,25.7,25.7h62.9
		c14.2,0,25.7-11.5,25.7-25.7V76.7C165.1,62.6,153.6,51.1,139.4,51.1z M108.2,145.5h-0.3c-20.4,0-37.2-16.8-37.2-37.5
		c0-20.4,16.8-37.5,37.2-37.5h0.3c20.4,0,37.5,17.1,37.5,37.5C145.7,128.7,128.6,145.5,108.2,145.5z M145,79c-4.6,0-7.9-3.6-7.9-7.9
		c0-4.3,3.3-7.9,7.9-7.9c4.3,0,7.9,3.6,7.9,7.9C152.9,75.4,149.3,79,145,79z"/>
	<path class="st0" d="M108,0C48.4,0,0,48.4,0,108s48.4,108,108,108c59.6,0,108-48.4,108-108S167.6,0,108,0z M177,139.6
		c0,20.4-16.8,37.2-37.2,37.2H76.2C55.8,176.8,39,160,39,139.6V76.4C39,56,55.8,39.2,76.2,39.2h63.5c20.4,0,37.2,16.8,37.2,37.2
		V139.6z"/>
</g>
</svg>
